<svg width="57" height="58" viewBox="0 0 57 58" fill="none" xmlns="http://www.w3.org/2000/svg">
<path d="M48.5688 49.4207H40.1232V35.9599C40.1232 32.7506 40.0663 28.6181 35.7295 28.6181C31.331 28.6181 30.6565 32.1175 30.6565 35.7231V49.4207H22.211V21.7403H30.3193V25.5248H30.4332C32.0863 22.6538 35.1642 20.9332 38.4322 21.054C46.9917 21.054 48.5735 26.7815 48.5735 34.2393L48.5688 49.4159V49.4207ZM12.6825 17.9558C11.3852 17.9495 10.1426 17.4226 9.22483 16.4896C8.30701 15.5566 7.78799 14.2928 7.7805 12.9727C7.7805 10.237 9.994 7.98471 12.6825 7.98471C15.371 7.98471 17.5798 10.237 17.5845 12.9727C17.5845 15.7083 15.371 17.9558 12.6825 17.9558ZM16.9053 49.4207H8.45025V21.7403H16.9053V49.4207ZM52.7725 7.18387e-05H4.20375C3.10247 -0.00643684 2.04315 0.429558 1.25601 1.21331C0.468867 1.99707 0.0175022 3.06524 0 4.18572V53.8142C0.0175022 54.9347 0.468867 56.0029 1.25601 56.7866C2.04315 57.5704 3.10247 58.0064 4.20375 57.9999H52.7773C53.8811 58.009 54.9438 57.5744 55.7345 56.7906C56.5252 56.0069 56.98 54.9372 57 53.8142V4.18089C56.98 3.05873 56.5249 1.99009 55.7339 1.20786C54.943 0.425639 53.8802 -0.0067582 52.7773 0.0049048L52.7725 7.18387e-05Z" fill="#0A66C2"/>
</svg>
