<?xml version="1.0" encoding="UTF-8"?>
<svg width="101px" height="75px" viewBox="0 0 101 75" version="1.1" xmlns="http://www.w3.org/2000/svg" xmlns:xlink="http://www.w3.org/1999/xlink">
    <title>children</title>
    <g id="Page-1" stroke="none" stroke-width="1" fill="none" fill-rule="evenodd">
        <g id="Home" transform="translate(-784.000000, -1475.000000)" fill="#FFFFFF">
            <g id="Group-15" transform="translate(0.000000, 1381.000000)">
                <g id="children" transform="translate(784.000000, 94.000000)">
                    <path d="M94.5909965,36.6600524 C95.0100524,35.773951 95.245542,34.7853147 95.245542,33.7426573 C95.245542,32.0063811 94.5951923,30.4195804 93.5276224,29.2109266 C93.6978147,28.9701923 93.7982517,28.6780594 93.7982517,28.3615385 C93.7982517,24.0049825 94.0153846,21.4216783 92.7041958,17.673514 C92.4356643,16.9051573 91.5936189,16.4984266 90.8255245,16.7677448 C90.0561189,17.0373252 89.6504371,17.8783217 89.9200175,18.647465 C90.990472,21.7104021 90.847028,23.8340035 90.847028,26.886451 C88.9662587,26.886451 83.8977273,26.886451 81.7607517,26.886451 C77.4923077,26.886451 74.0197552,23.4149476 74.0197552,19.1465035 C74.0197552,18.331993 73.3589161,17.6714161 72.5446678,17.6714161 C71.7301573,17.6714161 71.0695804,18.331993 71.0695804,19.1465035 C71.0695804,23.4149476 67.597028,26.886451 63.3293706,26.886451 L54.2423077,26.886451 L54.2423077,24.1381993 C54.2423077,14.9711538 61.7006119,7.51363636 70.8676573,7.51363636 C70.9793706,7.51363636 71.0695804,7.60384615 71.0695804,7.71555944 C71.0695804,8.52980769 71.7301573,9.19064685 72.5446678,9.19064685 C73.3589161,9.19064685 74.0197552,8.52980769 74.0197552,7.71555944 C74.0197552,7.60384615 74.1107517,7.51363636 74.222465,7.51363636 C79.0277098,7.51363636 83.5964161,9.59318182 86.7576923,13.2183566 C87.2934441,13.831993 88.2256993,13.8954545 88.8390734,13.3607517 C89.4527098,12.825 89.5172203,11.8937937 88.9814685,11.2793706 C85.2600524,7.01171329 79.8810315,4.56346154 74.222465,4.56346154 C73.6059441,4.56346154 73.0311189,4.74073427 72.5446678,5.04807692 C72.0590035,4.74073427 71.4833916,4.56346154 70.8676573,4.56346154 C60.073951,4.56346154 51.2921329,13.345542 51.2921329,24.1392483 L51.2921329,28.3615385 C51.2921329,28.6780594 51.3925699,28.9712413 51.5625,29.2109266 C51.0666084,29.7710664 50.6611888,30.4125 50.3690559,31.1131993 C50.1917832,28.9384615 49.0948427,27.0277972 47.4558566,25.7782343 L47.4558566,20.158479 C47.4558566,9.09440559 38.4548077,0.0930944056 27.390472,0.0930944056 C24.6432692,0.0930944056 25.7444056,0.0451048951 21.9440559,0.34222028 C16.7032343,0.751835664 12.0128497,3.55646853 9.17307692,7.91931818 L4.73050699,6.49956294 C3.81057692,6.20454545 2.85498252,6.86433566 2.80777972,7.83435315 C2.78732517,8.27884615 2.34178322,18.1578671 4.14361888,25.0376748 C1.68907343,26.2688811 0,28.8073427 0,31.734965 C0,35.5342657 2.84370629,38.6811189 6.51293706,39.1604895 C7.4368007,43.1236888 9.61993007,46.7213287 12.7410839,49.3898601 C13.559528,50.0895105 14.4333042,50.7123252 15.3479895,51.2593531 L12.2441434,51.2593531 C7.14388112,51.2593531 2.99527972,55.4090035 2.99527972,60.5092657 L2.99527972,73.4347028 C2.99527972,74.2502622 3.65506993,74.9097902 4.47036713,74.9097902 L6.92071678,74.9097902 C7.73496503,74.9097902 8.3958042,74.2502622 8.3958042,73.4347028 C8.3958042,72.6204545 7.73496503,71.9596154 6.92071678,71.9596154 L5.94545455,71.9596154 L5.94545455,60.5092657 C5.94545455,57.0356643 8.77054196,54.209528 12.2441434,54.209528 L16.5354021,54.209528 C17.2678322,58.5590035 21.2013986,61.8296329 25.7965909,61.5327797 C29.9564685,61.2642483 33.2530594,58.134965 33.9146853,54.209528 L38.2067308,54.209528 C41.6803322,54.209528 44.5056818,57.0356643 44.5056818,60.5092657 L44.5056818,71.9596154 L13.804458,71.9596154 C12.9899476,71.9596154 12.3293706,72.6204545 12.3293706,73.4347028 C12.3293706,74.2502622 12.9899476,74.9097902 13.804458,74.9097902 L45.9818182,74.9097902 C46.7960664,74.9097902 47.4569056,74.2502622 47.4569056,73.4347028 L47.4569056,60.5092657 C47.4569056,59.2801573 47.2140734,58.1082168 46.7777098,57.0346154 L49.147028,57.0346154 C50.6312937,57.0346154 52.0460664,56.738549 53.3396853,56.2048951 C52.4302448,57.6123252 51.8994755,59.2861888 51.8994755,61.0840909 L51.8994755,73.4347028 C51.8994755,74.2502622 52.5603147,74.9097902 53.3745629,74.9097902 L91.8149476,74.9097902 C92.629458,74.9097902 93.290035,74.2502622 93.290035,73.4347028 L93.290035,61.0840909 C93.290035,59.3087413 92.7726399,57.6534965 91.8836538,56.2570804 C93.1405594,56.7571678 94.509965,57.0346154 95.9430944,57.0346154 L99.2242133,57.0346154 C100.038462,57.0346154 100.699301,56.3750874 100.699301,55.559528 L100.699301,46.5256993 C100.699301,42.3238636 98.2633741,38.5027972 94.5909965,36.6600524 Z M63.3293706,29.8366259 C67.2506119,29.8366259 70.6843531,27.7161713 72.5457168,24.5611888 C74.4057692,27.7161713 77.8405594,29.8366259 81.7607517,29.8366259 L88.3903846,29.8366259 C90.5436189,29.8366259 92.2953671,31.5883741 92.2953671,33.7426573 C92.2953671,34.7958042 91.8744755,35.7503497 91.1952797,36.4531469 C90.4187937,37.2561189 89.3412587,37.688549 88.2338287,37.6434441 C87.4880245,37.6085664 86.8395105,38.1393357 86.7167832,38.8736014 C85.5938811,45.5832168 79.790035,50.8547203 72.5457168,50.8547203 C67.4268357,50.8547203 62.6451923,48.1481643 60.0718531,43.6481643 C60.0482517,43.5868007 60.0207168,43.5272727 59.988986,43.4701049 C59.3876748,42.3923077 58.9326923,41.2541958 58.6284965,40.0741259 C58.622465,40.0497378 58.6172203,40.0261364 58.6111888,40.002535 C58.5283217,39.669493 58.4483392,39.3173077 58.3736014,38.8736014 C58.2516608,38.1411713 57.6,37.6096154 56.8562937,37.6434441 C54.6490385,37.7326049 52.7947552,35.9522727 52.7947552,33.7416084 C52.7947552,31.5883741 54.5465035,29.8366259 56.6997378,29.8366259 C56.754021,29.8366259 56.8072552,29.8387238 56.8604895,29.8408217 C56.923951,29.8439685 56.9855769,29.8418706 57.0469406,29.8366259 L63.3293706,29.8366259 Z M72.5690559,60.0094406 C69.7623252,60.0094406 67.479021,57.7261364 67.479021,54.9194056 L67.479021,53.0499126 C69.1539336,53.5641608 70.901486,53.8048951 72.5446678,53.8048951 C74.2418706,53.8048951 76.0090909,53.5476399 77.6593531,53.0354895 L77.6593531,54.9194056 C77.6593531,57.6390734 75.5163462,59.8670455 72.830507,60.0031469 C72.7442308,60.0073427 72.6571678,60.0094406 72.5690559,60.0094406 Z M60.909965,52.0715035 C60.9089161,52.0715035 60.9089161,52.0715035 60.9078671,52.0715035 C59.8966783,52.0715035 58.9256119,52.2416958 58.016958,52.5511364 C58.9287587,51.3186189 59.5893357,49.8896853 59.9244755,48.341958 C60.3566434,48.8019231 60.8145105,49.2422203 61.2980769,49.6560315 C62.2958916,50.5083042 63.380507,51.2378497 64.5288462,51.8370629 L64.5288462,52.0715035 L60.909965,52.0715035 Z M80.609528,51.8124126 C82.2791958,50.9344406 83.8075175,49.7892483 85.1659091,48.341958 C85.4976399,49.8713287 86.1461538,51.2837413 87.0414336,52.5060315 C85.3573427,51.9618881 84.4785839,52.0715035 80.609528,52.0715035 L80.609528,51.8124126 Z M5.70681818,9.90865385 L9.38627622,11.0847902 C10.0573427,11.2987762 10.7855769,11.0097902 11.1267483,10.3932692 C13.386451,6.30498252 17.5166958,3.64667832 22.1745629,3.28321678 C25.8826049,2.99423077 24.7578671,3.04248252 27.390472,3.04248252 C36.8281469,3.04248252 44.5056818,10.7210664 44.5056818,20.158479 L44.5056818,24.4187937 C43.2170455,24.1421329 43.6245629,24.2517483 23.394493,24.2517483 C21.9236014,24.2517483 20.5148601,23.925 19.2458916,23.334965 C16.4533217,22.0371503 14.334965,19.4640734 13.7152972,16.2925699 C13.4777098,15.0807692 11.9861014,14.7170455 11.1902098,15.5682692 C9.06267483,17.8434441 7.57421329,20.5374126 6.76704545,23.3339161 C5.75297203,18.7458042 5.67089161,12.8916084 5.70681818,9.90865385 Z M9.18854895,37.498951 C9.06870629,36.7859266 8.45113636,36.2677448 7.73391608,36.2677448 C7.71451049,36.2677448 7.69405594,36.2677448 7.6736014,36.2687937 C7.61197552,36.2706294 7.55061189,36.2737762 7.48924825,36.2737762 C4.98671329,36.2737762 2.95017483,34.2375 2.95017483,31.734965 C2.95017483,29.2743881 4.91171329,27.2861014 7.3243007,27.2011364 C7.32928322,27.2011364 7.33557692,27.2011364 7.34160839,27.2000874 C7.45122378,27.1969406 7.56083916,27.1969406 7.67045455,27.2011364 C7.67255245,27.2011364 7.6756993,27.2011364 7.67753497,27.2019231 C7.68173077,27.2019231 7.68671329,27.2011364 7.69090909,27.2011364 C8.42648601,27.2244755 9.06660839,26.698951 9.18854895,25.9707168 C9.52159091,23.9803322 10.2201923,22.086451 11.245542,20.3695804 C11.3918706,20.1236014 11.545542,19.8818182 11.705507,19.6442308 C13.7357517,24.1534091 18.2756119,27.202972 23.394493,27.202972 L43.1218531,27.202972 C43.8377622,27.2357517 44.5835664,27.4520979 45.2257867,27.8352273 C45.2381119,27.8412587 45.2493881,27.8465035 45.2617133,27.852535 C46.5757867,28.6473776 47.4466783,30.0875874 47.4466783,31.734965 C47.4466783,34.2375 45.4101399,36.2727273 42.9076049,36.2727273 C42.8462413,36.2727273 42.7835664,36.2706294 42.7222028,36.2687937 C41.9805944,36.2420455 41.3310315,36.765472 41.2083042,37.498951 C39.8714161,45.493007 32.9926573,51.0348776 25.1984266,51.0348776 C17.3436189,51.0348776 10.5152098,45.4358392 9.18854895,37.498951 Z M24.9298951,58.5957168 C22.0434441,58.451486 19.6893357,56.2059441 19.3943182,53.3428322 C19.3922203,53.3213287 19.3911713,53.2998252 19.3893357,53.2772727 C19.383042,53.2138112 19.3780594,53.1503497 19.3749126,53.0858392 C21.3170455,53.705507 23.3423077,53.9850524 25.1984266,53.9850524 C27.0894231,53.9850524 29.131993,53.6952797 31.0793706,53.0672203 C30.901049,56.2796329 28.1465035,58.7567308 24.9298951,58.5957168 Z M38.2067308,51.2593531 L35.0486014,51.2593531 C35.963549,50.7123252 36.8373252,50.0895105 37.6557692,49.3898601 C40.7769231,46.7223776 42.9597902,43.1236888 43.8839161,39.1604895 C46.6250874,38.8020105 48.9052448,36.9550699 49.8836538,34.4596154 C49.9644231,35.2392483 50.1776224,35.9798077 50.4980769,36.6600524 C46.8256993,38.5027972 44.3908217,42.3238636 44.3908217,46.5256993 L44.3908217,53.6378497 C42.7507867,52.1606643 40.5823427,51.2593531 38.2067308,51.2593531 Z M47.3409965,54.0844406 L47.3409965,46.5256993 C47.3409965,43.2435315 49.3683566,40.2770979 52.3604895,39.0487762 C53.3407343,39.8488636 54.5208042,40.3518357 55.6998252,40.5249126 C56.0409965,41.9478147 56.5767483,43.3379371 57.2252622,44.5631119 L57.2252622,46.0064685 C57.2252622,50.4603147 53.6008741,54.0844406 49.147028,54.0844406 L47.3409965,54.0844406 Z M90.3398601,71.9596154 L54.8496503,71.9596154 L54.8496503,61.0840909 C54.8496503,57.7405594 57.5693182,55.0216783 60.9118007,55.0216783 L64.5298951,55.0216783 C64.5841783,59.3774476 68.1448427,62.9596154 72.5690559,62.9596154 C76.9431818,62.9596154 80.5541958,59.4317308 80.609528,55.0216783 L84.2777098,55.0216783 C87.6201923,55.0216783 90.3398601,57.7405594 90.3398601,61.0840909 L90.3398601,71.9596154 Z M97.7491259,54.0844406 L95.9430944,54.0844406 C91.4892483,54.0844406 87.8651224,50.4613636 87.8651224,46.0064685 L87.8651224,44.5631119 C88.5225524,43.3193182 89.0533217,41.930507 89.3892483,40.5249126 C90.4977273,40.3631119 91.6151224,39.9123252 92.5872378,39.1573427 C92.6344406,39.1206294 92.6826923,39.0868007 92.7285839,39.0498252 C95.720979,40.2770979 97.7491259,43.2435315 97.7491259,46.5256993 L97.7491259,54.0844406 Z" id="Fill-4"></path>
                </g>
            </g>
        </g>
    </g>
</svg>