<?xml version="1.0" encoding="utf-8"?>
<!-- Generator: Adobe Illustrator 24.1.1, SVG Export Plug-In . SVG Version: 6.00 Build 0)  -->
<svg version="1.1" id="Layer_1" xmlns="http://www.w3.org/2000/svg" xmlns:xlink="http://www.w3.org/1999/xlink" x="0px" y="0px"
	 viewBox="0 0 300 300" style="enable-background:new 0 0 300 300;" xml:space="preserve">
<style type="text/css">
	.st0{fill:#3EC1CE;stroke:#3EC1CE;stroke-miterlimit:10;enable-background:new    ;}
</style>
<path class="st0" d="M300,108.7L300,108.7c0-12.7-10.3-23-23-23H31.5c-12.7,0-23,10.3-23,23l0,0c0,12.7,10.3,23,23,23H277
	C289.7,131.7,300,121.4,300,108.7z"/>
<path class="st0" d="M291.4,192.4L291.4,192.4c0-12.7-10.3-23-23-23H23c-12.7,0-23,10.3-23,23l0,0c0,12.7,10.3,23,23,23h245.5
	C281.1,215.3,291.4,205.1,291.4,192.4z"/>
<path class="st0" d="M236.7,6.9L236.7,6.9c-12.5-2.4-24.5,5.8-26.9,18.2l-46.4,241c-2.4,12.5,5.8,24.5,18.2,26.9l0,0
	c12.5,2.4,24.5-5.8,26.9-18.2l46.4-241C257.3,21.4,249.2,9.3,236.7,6.9z"/>
<path class="st0" d="M118.7,6.9L118.7,6.9c-12.5-2.4-24.5,5.8-26.9,18.2l-46.4,241c-2.4,12.5,5.8,24.5,18.2,26.9l0,0
	c12.5,2.4,24.5-5.8,26.9-18.2l46.4-241C139.3,21.4,131.1,9.3,118.7,6.9z"/>
</svg>
