<?xml version="1.0" encoding="utf-8"?>
<!-- Generator: Adobe Illustrator 25.4.1, SVG Export Plug-In . SVG Version: 6.00 Build 0)  -->
<svg version="1.1" id="Layer_1" xmlns="http://www.w3.org/2000/svg" xmlns:xlink="http://www.w3.org/1999/xlink" x="0px" y="0px"
	 viewBox="0 0 21.4 22" style="enable-background:new 0 0 21.4 22;" xml:space="preserve">
<style type="text/css">
	.st0{fill:#3EC1CE;}
</style>
<g>
	<g>
		<g>
			<path class="st0" d="M12.1,1.6c-0.8-1.1-2.1-1-2.8,0c-1.7,2.5-7.1,10-7.1,10c-0.4,0.6-0.4,1.3,0,1.9c0.4,0.6,1.2,0.8,1.8,0.5
				l4.1-1.6l-0.5,8c0,0.4,0.1,0.9,0.4,1.2C8.4,21.8,8.8,22,9.2,22h2.9c0.4,0,0.9-0.2,1.2-0.5c0.3-0.3,0.5-0.8,0.4-1.2l-0.5-8
				l4.1,1.6c0.6,0.3,1.4,0.1,1.8-0.5c0.4-0.6,0.5-1.3,0-1.9C19.1,11.5,13.8,4.1,12.1,1.6z"/>
		</g>
	</g>
</g>
</svg>
