<svg width="57" height="69" viewBox="0 0 57 69" fill="none" xmlns="http://www.w3.org/2000/svg">
<path d="M4.35675 29.106C5.70413 31.1216 7.01675 33.1589 8.40691 35.1475C9.64558 36.9172 10.9181 38.6699 12.2691 40.3595C14.1021 42.6525 16.7051 43.5063 19.5647 43.8224C22.3852 44.1681 25.2459 43.9176 27.9655 43.0867C30.685 42.2558 33.204 40.8628 35.3627 38.9959C38.797 36.0567 41.6592 32.4963 43.8026 28.4972C44.1269 27.9207 44.4994 27.3687 44.7908 26.7778C45.0724 26.2077 45.0635 25.7737 44.1875 25.752C38.7707 25.6193 33.3544 25.4716 27.9387 25.3089C23.2014 25.1612 18.466 24.9658 13.7287 24.8082C12.9374 24.782 12.7031 24.3578 12.8082 23.7058C13.1727 21.4335 13.5318 19.1594 13.9551 16.897C14.5436 14.0757 15.7261 11.4156 17.4225 9.09743C19.5612 6.06083 22.5304 3.7211 25.9657 2.36517C30.1628 0.687842 34.6527 -0.112419 39.1642 0.0127035C43.7518 0.0676424 48.26 0.814268 51.9751 3.79538C54.1855 5.57537 55.7201 8.07212 56.3194 10.8636C57.3388 15.1578 56.863 19.3683 55.9282 23.5941C54.6758 29.0648 52.7015 34.3406 50.0583 39.2796C47.1919 44.7716 43.5252 49.7971 39.1812 54.1879C34.9112 58.5333 30.003 62.1864 24.6299 65.018C21.7846 66.5741 18.7385 67.7217 15.5796 68.4278C12.2824 69.1087 9.0218 69.0682 6.01067 67.275C3.66701 65.8388 1.94788 63.5595 1.19858 60.8949C-0.523971 55.5812 -0.10959 50.2187 0.704011 44.8446C1.1576 41.8473 1.56037 38.8401 2.14584 35.8671C2.5914 33.5975 3.29183 31.3747 3.8782 29.1312L4.35675 29.106Z" fill="#001A31" fill-opacity="0.5"/>
</svg>
