<svg width="99" height="119" viewBox="0 0 99 119" fill="none" xmlns="http://www.w3.org/2000/svg">
<path d="M7.58143 50.3176C9.9261 53.8021 12.2103 57.324 14.6294 60.7619C16.7848 63.8213 18.9993 66.8513 21.3501 69.7722C24.5399 73.7363 29.0695 75.2123 34.0457 75.7589C38.9537 76.3565 43.9319 75.9233 48.6643 74.487C53.3968 73.0506 57.7803 70.6423 61.5367 67.4149C67.5129 62.3338 72.4935 56.1787 76.2234 49.265C76.7878 48.2685 77.436 47.3141 77.9431 46.2927C78.4332 45.3071 78.4176 44.5567 76.8933 44.5193C67.4671 44.2899 58.0419 44.0346 48.6177 43.7533C40.3742 43.4979 32.1337 43.1601 23.8902 42.8876C22.5132 42.8424 22.1054 42.1091 22.2883 40.9818C22.9226 37.0535 23.5475 33.1221 24.2841 29.2109C25.3081 24.3337 27.366 19.7349 30.3179 15.7273C34.0396 10.4778 39.2064 6.43292 45.1845 4.08883C52.488 1.18912 60.3011 -0.194347 68.152 0.0219615C76.135 0.116938 83.98 1.40768 90.4449 6.56133C94.2914 9.63853 96.9618 13.9548 98.0046 18.7806C99.7786 26.2044 98.9506 33.4833 97.3239 40.7887C95.1446 50.2463 91.709 59.3669 87.1094 67.9054C82.1213 77.3997 75.7408 86.0877 68.1814 93.6783C60.751 101.191 52.2099 107.506 42.86 112.401C37.9086 115.091 32.6079 117.075 27.111 118.296C21.3734 119.473 15.6994 119.403 10.4595 116.303C6.38119 113.82 3.38962 109.88 2.08572 105.273C-0.911793 96.087 -0.190704 86.8166 1.22509 77.526C2.0144 72.3443 2.71529 67.1455 3.7341 62.0059C4.50946 58.0823 5.72831 54.2396 6.74867 50.3611L7.58143 50.3176Z" fill="#1EC0CA"/>
</svg>
