<svg width="304" height="225" viewBox="0 0 304 225" fill="none" xmlns="http://www.w3.org/2000/svg">
<path d="M289.48 161.114C287.921 152.58 287.995 143.524 287.773 134.942C287.579 127.499 283.416 121.043 276.907 120.04C274.272 119.709 271.6 120.212 269.251 121.483C266.901 122.753 264.985 124.731 263.759 127.15C263.342 130.974 262.697 134.769 261.829 138.513C259.399 149.148 255.719 159.439 250.869 169.161C245.875 179.47 239.436 188.971 231.76 197.362C227.831 201.631 223.539 205.532 218.935 209.017C216.697 210.704 214.375 212.269 211.979 213.708L211.91 213.75C210.252 214.735 210.977 218.038 212.817 217.82C213.619 217.725 214.403 217.61 215.179 217.491C230.098 215.065 243.975 208.125 255.035 197.558C260.172 192.821 264.808 187.542 268.868 181.809C268.983 181.642 269.139 181.511 269.32 181.428C269.502 181.345 269.701 181.314 269.898 181.338C270.095 181.362 270.282 181.441 270.44 181.565C270.597 181.689 270.719 181.855 270.792 182.044C273.7 187.946 277.568 193.294 282.227 197.86C287.183 202.81 293.572 205.97 300.43 206.864C302.827 207.132 304.171 204.027 302.627 201.755C294.298 189.509 291.045 173.898 289.48 161.114Z" fill="white"/>
<path d="M300.791 83.8245C300.717 90.146 298.152 96.1796 293.658 100.599C289.164 105.017 283.111 107.46 276.827 107.389C270.544 107.319 264.546 104.74 260.152 100.222C255.757 95.7025 253.327 89.6128 253.394 83.2912C253.427 80.159 254.074 77.0642 255.296 74.1834C256.518 71.3027 258.293 68.6925 260.518 66.5019C262.744 64.3114 265.376 62.5835 268.266 61.4169C271.155 60.2503 274.244 59.6679 277.357 59.7029C280.471 59.7379 283.546 60.3897 286.409 61.621C289.272 62.8524 291.865 64.6391 294.041 66.8791C296.217 69.1192 297.933 71.7687 299.091 74.6762C300.25 77.5837 300.827 80.6924 300.791 83.8245Z" fill="white"/>
<path d="M78.4981 167.747C76.9393 159.212 77.0128 150.157 76.7908 141.575C76.5975 134.132 72.4346 127.676 65.9254 126.673C63.2898 126.342 60.6186 126.845 58.269 128.116C55.9194 129.386 54.0034 131.363 52.7774 133.783C52.3599 137.607 51.7151 141.402 50.8466 145.146C48.4172 155.781 44.7371 166.072 39.8875 175.794C34.8926 186.102 28.4545 195.604 20.7782 203.995C16.8492 208.264 12.5572 212.165 7.95323 215.65C5.71513 217.336 3.39328 218.902 0.997075 220.341L0.927853 220.383C-0.730432 221.368 -0.00511538 224.67 1.83486 224.453C2.6366 224.358 3.42105 224.242 4.19684 224.124C19.1164 221.698 32.9931 214.758 44.0534 204.191C49.1896 199.454 53.8262 194.175 57.8863 188.441C58.0009 188.275 58.157 188.143 58.3383 188.061C58.5196 187.978 58.7194 187.947 58.9164 187.971C59.1135 187.995 59.3005 188.073 59.4578 188.198C59.615 188.322 59.7367 188.488 59.8099 188.677C62.7185 194.578 66.5856 199.927 71.2449 204.493C76.2014 209.443 82.5905 212.603 89.4486 213.497C91.8451 213.765 93.1891 210.66 91.6447 208.388C83.3158 196.142 80.0627 180.531 78.4981 167.747Z" fill="white"/>
<path d="M89.8077 90.4583C89.7343 96.7798 87.1688 102.813 82.6752 107.232C78.1816 111.651 72.1276 114.094 65.8445 114.023C59.5613 113.953 53.5632 111.374 49.1689 106.855C44.7746 102.336 42.3438 96.2466 42.411 89.9249C42.4443 86.7928 43.0907 83.698 44.3131 80.8172C45.5355 77.9365 47.3101 75.3263 49.5355 73.1357C51.7608 70.9452 54.3934 69.2173 57.2827 68.0507C60.172 66.8841 63.2614 66.3017 66.3745 66.3367C69.4876 66.3717 72.5633 67.0235 75.426 68.2548C78.2886 69.4862 80.882 71.2729 83.0582 73.5129C85.2343 75.753 86.9504 78.4024 88.1085 81.31C89.2666 84.2175 89.844 87.3262 89.8077 90.4583Z" fill="white"/>
<path d="M197.174 101.412C195.616 92.8777 195.689 83.822 195.467 75.2402C195.274 67.7974 191.111 61.3411 184.602 60.3383C181.966 60.0072 179.295 60.5106 176.945 61.7811C174.596 63.0516 172.68 65.0286 171.454 67.4478C171.036 71.2725 170.391 75.0674 169.523 78.8112C167.093 89.446 163.413 99.7376 158.564 109.459C153.569 119.768 147.131 129.269 139.455 137.66C135.525 141.929 131.233 145.83 126.629 149.316C124.391 151.002 122.07 152.567 119.673 154.006L119.604 154.048C117.946 155.033 118.671 158.336 120.511 158.118C121.313 158.023 122.097 157.908 122.873 157.789C137.793 155.363 151.669 148.423 162.73 137.856C167.866 133.119 172.502 127.841 176.563 122.107C176.677 121.94 176.833 121.809 177.015 121.726C177.196 121.643 177.396 121.612 177.593 121.636C177.79 121.66 177.977 121.739 178.134 121.863C178.291 121.987 178.413 122.153 178.486 122.342C181.395 128.244 185.262 133.592 189.921 138.158C194.878 143.108 201.267 146.268 208.125 147.162C210.521 147.43 211.865 144.326 210.321 142.053C201.992 129.807 198.739 114.196 197.174 101.412Z" fill="white"/>
<path d="M208.484 24.1231C208.411 30.4446 205.845 36.4782 201.351 40.8971C196.858 45.3161 190.804 47.7587 184.521 47.688C178.238 47.6173 172.239 45.0391 167.845 40.5201C163.451 36.0011 161.02 29.9114 161.087 23.5897C161.121 20.4576 161.767 17.3628 162.989 14.482C164.212 11.6013 165.986 8.99105 168.212 6.80052C170.437 4.61 173.07 2.88209 175.959 1.71548C178.848 0.548879 181.938 -0.033537 185.051 0.00149114C188.164 0.0365193 191.24 0.688304 194.102 1.91963C196.965 3.15095 199.558 4.93767 201.734 7.17772C203.911 9.41777 205.627 12.0672 206.785 14.9748C207.943 17.8823 208.52 20.9909 208.484 24.1231Z" fill="white"/>
</svg>
