<svg width="101" height="60" viewBox="0 0 101 60" fill="none" xmlns="http://www.w3.org/2000/svg">
<path d="M95.6957 0C102.37 10.6815 101.888 25.6969 97.5145 37.1359C94.8411 44.1222 89.2849 51.0282 82.6772 54.5272C74.2516 58.9899 67.6902 54.2066 63.1935 46.7952C60.3909 42.1741 58.3511 37.1305 55.7571 32.3941C51.9359 37.4755 48.4249 42.7919 44.5074 47.7994C38.5823 55.3756 29.5454 62.8986 19.5514 57.4056C11.099 52.7602 7.69222 42.1705 5.77629 33.2812C5.06339 29.9669 2.3009 6.21259 0 6.15675C1.14154 6.18377 5.9768 6.30355 6.70664 7.47708C23.6586 34.7312 27.6927 34.6961 45.9404 7.09971C46.975 5.53621 48.1682 4.07898 49.9745 1.64637C53.1701 6.70524 56.2329 11.8479 59.4045 16.9203C61.438 20.1715 63.8752 24.0218 67.3195 25.9212C74.4102 29.83 81.271 20.0536 84.9638 15.3621C85.2014 15.0619 85.4352 14.7617 85.6651 14.4615C88.9498 10.2186 91.8086 5.63528 95.6957 0Z" fill="#001A31" fill-opacity="0.5"/>
</svg>
