<svg width="370" height="186" viewBox="0 0 370 186" fill="none" xmlns="http://www.w3.org/2000/svg">
<mask id="mask0_345_944" style="mask-type:luminance" maskUnits="userSpaceOnUse" x="12" y="0" width="348" height="186">
<path d="M359.887 0H12.2656V186H359.887V0Z" fill="white"/>
</mask>
<g mask="url(#mask0_345_944)">
<path d="M33.9347 102.424C36.1905 105.781 38.3881 109.174 40.7155 112.486C42.7893 115.434 44.9198 118.353 47.1816 121.167C50.2505 124.986 54.6084 126.408 59.3961 126.934C64.118 127.51 68.9075 127.093 73.4606 125.709C78.0137 124.325 82.2311 122.005 85.8451 118.896C91.5949 114.001 96.3867 108.071 99.9752 101.41C100.518 100.45 101.142 99.5309 101.63 98.5469C102.101 97.5974 102.086 96.8744 100.62 96.8384C91.5508 96.6174 82.4828 96.3714 73.4158 96.1004C65.4847 95.8544 57.5565 95.5289 49.6254 95.2664C48.3006 95.2229 47.9082 94.5164 48.0843 93.4304C48.6945 89.6459 49.2957 85.8584 50.0044 82.0904C50.9896 77.3916 52.9695 72.9612 55.8095 69.1004C59.3902 64.043 64.3612 60.1462 70.1127 57.8879C77.1394 55.0943 84.6564 53.7615 92.2097 53.9699C99.8902 54.0614 107.438 55.3049 113.658 60.2699C117.358 63.2344 119.928 67.3927 120.931 72.0419C122.638 79.1939 121.841 86.2064 120.276 93.2444C118.179 102.356 114.874 111.142 110.449 119.368C105.65 128.515 99.5109 136.885 92.238 144.198C85.0892 151.435 76.8718 157.519 67.8763 162.235C63.1125 164.827 58.0127 166.738 52.7242 167.914C47.204 169.048 41.745 168.981 36.7037 165.994C32.78 163.602 29.9018 159.806 28.6473 155.368C25.7634 146.518 26.4571 137.587 27.8193 128.637C28.5787 123.645 29.253 118.636 30.2332 113.685C30.9792 109.905 32.1518 106.203 33.1335 102.466L33.9347 102.424Z" fill="white"/>
<path d="M167.862 116.112C166.249 107.469 166.325 98.2978 166.095 89.6068C165.895 82.0693 161.588 75.5309 154.854 74.5154C152.127 74.1801 149.363 74.6898 146.932 75.9765C144.501 77.2631 142.519 79.2654 141.25 81.7154C140.818 85.5887 140.151 89.4319 139.252 93.2234C136.739 103.993 132.931 114.416 127.914 124.261C122.746 134.701 116.085 144.323 108.142 152.821C104.077 157.145 99.6367 161.095 94.8732 164.625C92.5576 166.333 90.1553 167.918 87.6761 169.375L87.6045 169.417C85.8888 170.415 86.6392 173.76 88.5429 173.539C89.3725 173.443 90.1841 173.326 90.9867 173.206C106.423 170.75 120.78 163.721 132.224 153.019C137.538 148.223 142.335 142.877 146.536 137.07C146.654 136.901 146.816 136.768 147.004 136.684C147.191 136.6 147.398 136.569 147.602 136.593C147.806 136.618 147.999 136.697 148.162 136.823C148.325 136.949 148.45 137.116 148.526 137.308C151.535 143.285 155.537 148.701 160.357 153.325C165.485 158.338 172.096 161.539 179.191 162.444C181.671 162.715 183.062 159.571 181.464 157.27C172.846 144.868 169.48 129.058 167.862 116.112Z" fill="#1EC0CA"/>
<path d="M337.035 62.688C348.209 80.478 347.402 105.486 340.08 124.537C335.604 136.173 326.302 147.675 315.239 153.502C301.133 160.935 290.148 152.968 282.619 140.625C277.927 132.928 274.512 124.528 270.169 116.64C263.772 125.103 257.894 133.957 251.335 142.297C241.415 154.915 226.285 167.445 209.553 158.296C195.402 150.559 189.699 132.922 186.491 118.117C185.297 112.597 180.672 73.035 176.82 72.942C178.731 72.987 186.827 73.1865 188.049 75.141C216.43 120.532 223.184 120.474 253.734 74.5125C255.466 71.9085 257.464 69.4815 260.488 65.43C265.838 73.8555 270.966 82.4205 276.276 90.8685C279.68 96.2835 283.761 102.696 289.527 105.859C301.398 112.369 312.885 96.087 319.067 88.2735C319.465 87.7735 319.857 87.2735 320.242 86.7735C325.741 79.707 330.527 72.0735 337.035 62.688Z" fill="white"/>
<path d="M178.722 36.6946C178.648 43.0422 176.07 49.1006 171.555 53.5378C167.039 57.9749 160.956 60.4277 154.643 60.3567C148.329 60.2857 142.302 57.6968 137.887 53.1592C133.471 48.6216 131.029 42.5068 131.096 36.1591C131.13 33.014 131.779 29.9065 133.007 27.0138C134.236 24.1212 136.019 21.5003 138.255 19.3007C140.491 17.1012 143.136 15.3661 146.04 14.1947C148.943 13.0233 152.047 12.4385 155.175 12.4737C158.303 12.5088 161.394 13.1633 164.27 14.3997C167.147 15.6361 169.753 17.4302 171.94 19.6795C174.126 21.9287 175.851 24.5891 177.014 27.5086C178.178 30.4282 178.758 33.5496 178.722 36.6946Z" fill="#FFDA00"/>
</g>
</svg>
