<svg xmlns="http://www.w3.org/2000/svg" width="876.078" height="530.663" viewBox="0 0 876.078 530.663">
  <g id="OBJECTS" transform="translate(-43.341 -63.837)">
    <path id="Path_9" data-name="Path 9" d="M127.481,541.621c4.732,3.528,13.03,6.059,21.214,8.469H830a25.46,25.46,0,0,0,3-2.11c5.973-4.967,9.122-12.479,11.8-19.773C857.718,493,864.727,455.047,860.2,417.819s-21.353-73.683-50.066-97.808c-14.648-12.309-32.022-21.238-45.76-34.554-42.188-40.89-42.781-115.031-91.2-148.311-22.308-15.334-50.875-18.613-77.885-16.829-25.232,1.666-50.566,7.5-72.4,20.253-22.8,13.317-40.687,33.413-59.637,51.8-37.984,36.866-84.117,68.894-136.694,75.023-33.443,3.9-67.291-2.932-100.9-.879A192.437,192.437,0,0,0,123.5,303.741c-18.907,14.014-35.535,32.105-43.745,54.162-12.146,32.633-4.479,69.241,7.256,102.025C95.109,482.546,107.766,526.921,127.481,541.621Z" transform="translate(11.09 20.535)" fill="#1ec0ca" opacity="0.27"/>
    <path id="Path_10" data-name="Path 10" d="M803.1,469.225q-26.867,50.4-53.882,100.728c-2.413,4.523-4.985,9.223-9.225,12.1-5.475,3.718-12.585,3.666-19.2,3.478q-53.764-1.531-107.442-2l-247.579-2.257-111.086-1.014c-24.221-.221-48.315.706-72.486.776-12.29.034-25.333-2.315-34.421-10.59-7.556-6.881-11.344-16.879-14.629-26.559A617.824,617.824,0,0,1,101.54,382.367c-2.813-47.117,7.671-94.707,45.4-126.413,14.062-11.814,30.739-20.387,43.928-33.17,40.5-39.252,41.068-110.423,87.545-142.371,21.413-14.72,48.836-17.867,74.765-16.155,24.221,1.6,48.541,7.2,69.5,19.443,21.89,12.783,39.058,32.074,57.249,49.729,36.463,35.389,80.749,66.133,131.22,72.019,32.1,3.744,64.595-2.815,96.857-.844a184.718,184.718,0,0,1,98.068,35.733c18.151,13.451,34.113,30.82,41.993,51.992,17.22,46.263-1.551,94.8-23.277,136Q814,448.8,803.1,469.225Z" transform="translate(21.167 0)" fill="#1ec0ca" opacity="0.27"/>
    <g id="Group_2" data-name="Group 2" transform="translate(145.945 304.866)">
      <path id="Path_11" data-name="Path 11" d="M297.607,427.935l-6.567,16.427-1.627.265-15.8,2.611s-90.409,16.73-81.476-13.3c4.163-13.968,16.029-19.4,27.518-21.234-24.169-1.912-58.537-8.5-72.866-29.979-23.2-34.767,39.253-34.047,39.253-34.047S77.952,296.7,135.11,250.239c.605-.473,1.211-.947,1.8-1.381C193.4,207.031,223.531,330.9,223.531,330.9s9.35-70.8,38.325-40.691c17.885,18.623,16.938,53.6,13.608,77.615,4.258-10.845,12.131-21.255,26.666-22.314C333.377,343.24,297.607,427.935,297.607,427.935Z" transform="translate(-118.431 -240.231)" fill="#b8e072"/>
      <g id="Group_1" data-name="Group 1" transform="translate(32.853 27.502)" opacity="0.43">
        <line id="Line_1" data-name="Line 1" x1="139.757" y1="176.629" fill="none" stroke="#fff" stroke-linecap="round" stroke-linejoin="round" stroke-width="1"/>
        <path id="Path_12" data-name="Path 12" d="M242.672,299.908l-13.646,62.969-70.093-2.408" transform="translate(-136.443 -245.866)" fill="#b8e072" stroke="#fff" stroke-linecap="round" stroke-linejoin="round" stroke-width="1"/>
        <path id="Path_13" data-name="Path 13" d="M271.233,332.965l-21.174,55.744-66.589,9.349" transform="translate(-127.452 -233.754)" fill="#b8e072" stroke="#fff" stroke-linecap="round" stroke-linejoin="round" stroke-width="1"/>
      </g>
    </g>
    <g id="Group_15" data-name="Group 15" transform="translate(267.248 226.636)">
      <g id="Group_14" data-name="Group 14" transform="translate(0)">
        <g id="Group_12" data-name="Group 12" transform="translate(76.669)">
          <g id="Group_3" data-name="Group 3" transform="translate(33.934 130.984)">
            <path id="Path_14" data-name="Path 14" d="M335.823,299.336v59.522l-4.069-1.23-43.605-13.286v-65.5l4.883,2.1,25.645,11.015Z" transform="translate(-288.149 -278.839)" fill="#faad3b"/>
            <path id="Path_15" data-name="Path 15" d="M331.754,357.628l-43.605-13.287v-65.5l4.882,2.1L312,293.848s-10.163,37.132,15.026,57.761C329.918,353.976,331.414,355.962,331.754,357.628Z" transform="translate(-288.149 -278.839)" fill="#f5e073" opacity="0.75" style="mix-blend-mode: multiply;isolation: isolate"/>
          </g>
          <g id="Group_6" data-name="Group 6" transform="translate(9.628 8.98)">
            <ellipse id="Ellipse_1" data-name="Ellipse 1" cx="17.405" cy="19.842" rx="17.405" ry="19.842" transform="translate(75.33 59.332)" fill="#ffda00"/>
            <g id="Group_5" data-name="Group 5">
              <path id="Path_16" data-name="Path 16" d="M327.835,335.219c-.273.027-.56.055-.847.068-1.968.109-4.031.123-6.19.055-51.063-1.981-46.062-81.575-41.963-113.645a.1.1,0,0,1,.014-.068c1.025-8.076,1.995-13.118,1.995-13.118l24.391-7.105,15.563-4.55,26.263,11.656L368.1,245.95s.956,5.233,1.53,13.145c.055.806.109,1.626.164,2.487,0,.164.014.342.014.506v.068C371.164,287.011,367.994,332.1,327.835,335.219Z" transform="translate(-268.137 -186.875)" fill="#faad3b"/>
              <g id="Group_4" data-name="Group 4" transform="translate(42.739 72.506)">
                <path id="Path_17" data-name="Path 17" d="M313.993,256.852c0,3.23-1.8,5.85-4.017,5.85s-4.017-2.619-4.017-5.85,1.8-5.848,4.017-5.848S313.993,253.623,313.993,256.852Z" transform="translate(-300.056 -239.54)" fill="#001a31" stroke="#001a31" stroke-width="1"/>
                <path id="Path_18" data-name="Path 18" d="M337.531,256.852c0,3.23-1.8,5.85-4.017,5.85s-4.017-2.619-4.017-5.85,1.8-5.848,4.017-5.848S337.531,253.623,337.531,256.852Z" transform="translate(-291.432 -239.54)" fill="#001a31" stroke="#001a31" stroke-width="1"/>
                <path id="Path_19" data-name="Path 19" d="M328.72,255.284s-4.946,10.11-1.873,14.712,4.609,8.283-2.755,10.892" transform="translate(-293.412 -237.972)" fill="none" stroke="#001a31" stroke-linecap="round" stroke-linejoin="round" stroke-width="1"/>
                <path id="Path_20" data-name="Path 20" d="M301.639,272.787s9.357,14.807,26.845,9.473" transform="translate(-301.639 -231.558)" fill="none" stroke="#001a31" stroke-linecap="round" stroke-linejoin="round" stroke-width="1"/>
                <path id="Path_21" data-name="Path 21" d="M303.5,247.026a7.445,7.445,0,0,1,7.888-4.347c5.194.611,6.342,4.347,6.342,4.347" transform="translate(-300.958 -242.614)" fill="none" stroke="#001a31" stroke-linecap="round" stroke-linejoin="round" stroke-width="1"/>
                <path id="Path_22" data-name="Path 22" d="M329.267,248.031a5.822,5.822,0,0,1,6.168-3.4c4.06.477,4.957,3.4,4.957,3.4" transform="translate(-291.516 -241.894)" fill="none" stroke="#001a31" stroke-linecap="round" stroke-linejoin="round" stroke-width="1"/>
              </g>
              <path id="Path_23" data-name="Path 23" d="M371.1,260.936h-.246c-.2,0-.56-.027-1.038-.068-7.72-.752-48.139-7.037-59.316-21.343,0,0-35.568,80.373,17.34,94.474-.273.027-.56.055-.847.068-1.968.109-4.031.123-6.19.055-51.063-1.981-46.062-81.575-41.963-113.645a.1.1,0,0,1,.014-.068c1.626-8.076,3.033-13.118,3.033-13.118l24.391-7.105,18.009,2.883,25.675,14.812L358.047,234l11.587,23.871,1.2,2.487Z" transform="translate(-268.137 -185.655)" fill="#f5e073" opacity="0.75" style="mix-blend-mode: multiply;isolation: isolate"/>
              <path id="Path_24" data-name="Path 24" d="M309.431,229.379s23.7,34.564,62.85,35.453c0,0,13.745-90.954-71.341-72.912-30.738,9.84-35.908,29.121-26.047,83.241C274.893,275.161,302.081,253.275,309.431,229.379Z" transform="translate(-270.361 -189.552)" fill="#001a31"/>
              <path id="Path_25" data-name="Path 25" d="M286.652,195.767c-15.447,21.506-13.395,57.371-13.366,57.744l-1.435.1c-.029-.387-1.924-33.494,11.586-55.59A38.429,38.429,0,0,1,286.652,195.767Z" transform="translate(-269.854 -187.274)"/>
            </g>
          </g>
          <g id="Group_11" data-name="Group 11">
            <g id="Group_9" data-name="Group 9" transform="translate(0 71.207)">
              <g id="Group_7" data-name="Group 7" transform="translate(22.909 35.772)">
                <path id="Path_26" data-name="Path 26" d="M280.08,261.272s2.547,16.722,16.9,24" transform="translate(-280.08 -261.272)" fill="#ffda00" stroke="#ffda00" stroke-linecap="round" stroke-linejoin="round" stroke-width="1"/>
                <path id="Path_27" data-name="Path 27" d="M303.94,280.958c0,2.551-2.793,4.62-6.238,4.62s-6.238-2.069-6.238-4.62,2.793-4.619,6.238-4.619S303.94,278.407,303.94,280.958Z" transform="translate(-275.908 -255.751)" fill="#ffda00" stroke="#ffda00" stroke-width="1"/>
              </g>
              <g id="Group_8" data-name="Group 8">
                <ellipse id="Ellipse_2" data-name="Ellipse 2" cx="17.405" cy="19.842" rx="17.405" ry="19.842" transform="translate(2.309)" fill="#ffda00" stroke="#ffda00" stroke-width="1"/>
                <ellipse id="Ellipse_3" data-name="Ellipse 3" cx="14.16" cy="15.931" rx="14.16" ry="15.931" transform="translate(0 3.912)" fill="#ffda00" stroke="#ffda00" stroke-width="1"/>
              </g>
            </g>
            <g id="Group_10" data-name="Group 10" transform="translate(11.519)">
              <path id="Path_28" data-name="Path 28" d="M358.522,207.156a40.3,40.3,0,0,0-5.254-5.11c-7.868-10.165-19.023-17.616-34.773-17.631-11.5.015-20.976,3.905-28.255,11.645a42.155,42.155,0,0,0-3.59,4.393c-15.447,21.506-13.395,57.371-13.366,57.744l-1.435.1c-.029-.387-1.924-33.494,11.586-55.59a45.349,45.349,0,0,1,5.757-7.623c7.552-8.025,17.386-12.1,29.245-12.1h.057C337.777,183.009,350.354,193.776,358.522,207.156Z" transform="translate(-271.744 -182.98)" fill="#ffda00"/>
            </g>
          </g>
        </g>
        <g id="Group_13" data-name="Group 13" transform="translate(0 169.442)">
          <path id="Path_29" data-name="Path 29" d="M442.014,468.953l-14.517-.247L246.887,465.64l2.253-146.45,27.764-6.037h.019l26.345-6.169s35.674,52.954,53.542,4.732l68.019,22.256Z" transform="translate(-192.665 -306.984)" fill="#1ec0ca"/>
          <path id="Path_30" data-name="Path 30" d="M265.193,348.314s36.113,91.478,140.428,89.354l-162.839-7.111,1.979-61.922Z" transform="translate(-194.169 -291.84)" fill="#1ec0ca" opacity="0.75" style="mix-blend-mode: multiply;isolation: isolate"/>
          <line id="Line_2" data-name="Line 2" x1="0.886" y2="120.137" transform="translate(142.442 24.993)" fill="none" stroke="#001a31" stroke-linecap="round" stroke-linejoin="round" stroke-width="1"/>
          <path id="Path_31" data-name="Path 31" d="M211.007,377.993l-.775,49.631a14.749,14.749,0,0,0,14.45,14.977l183.124,3.7V430.039L265.178,412.856l1.942-36.9Z" transform="translate(-206.096 -281.71)" fill="#faad3b"/>
          <path id="Path_32" data-name="Path 32" d="M295.209,306.986l32.731,24.99s-4.142,2.166-15.063,14.037l-44.015-32.869Z" transform="translate(-184.613 -306.983)" fill="#fff"/>
          <path id="Path_33" data-name="Path 33" d="M312.1,331.221l13.835,11.054,17.69-27.8-16.578-5.425Z" transform="translate(-168.77 -306.228)" fill="#fff"/>
          <path id="Rectangle_25" data-name="Rectangle 25" d="M0,0H39.852a0,0,0,0,1,0,0V27.157a12.7,12.7,0,0,1-12.7,12.7H12.7A12.7,12.7,0,0,1,0,27.157V0A0,0,0,0,1,0,0Z" transform="translate(76.63 73.506)" fill="none" stroke="#001a31" stroke-linecap="round" stroke-linejoin="round" stroke-width="1"/>
          <path id="Path_34" data-name="Path 34" d="M276.265,404.435H207.2c0-69.327,34.654-84.2,50.286-87.381h.019c4.524-.909,8.438-1.5,8.438-1.5C283.283,327.253,276.265,404.435,276.265,404.435Z" transform="translate(-207.205 -303.843)" fill="#1ec0ca"/>
          <path id="Path_35" data-name="Path 35" d="M257.742,395.106s4.431-36.647,0-54.088" transform="translate(-188.687 -294.513)" fill="none" stroke="#001a31" stroke-linecap="round" stroke-linejoin="round" stroke-width="1"/>
        </g>
        <path id="Path_36" data-name="Path 36" d="M252.051,380.6l-1.608,30.553,67.03,8.527" transform="translate(-191.362 -110.567)" fill="none" stroke="#001a31" stroke-linecap="round" stroke-linejoin="round" stroke-width="1"/>
      </g>
    </g>
    <g id="Group_35" data-name="Group 35" transform="translate(742.785 339.532)">
      <g id="Group_34" data-name="Group 34" transform="translate(38.381 4.171)">
        <g id="Group_33" data-name="Group 33">
          <g id="Group_16" data-name="Group 16" transform="translate(79.935)">
            <path id="Path_37" data-name="Path 37" d="M661.05,307.311s-30.079-36.639-15.02-38.589c13.488-1.746,14.864,30.6,15,37.362C661.05,306.871,661.05,307.311,661.05,307.311Z" transform="translate(-641.81 -268.654)" fill="#b8e072"/>
          </g>
          <g id="Group_17" data-name="Group 17" transform="translate(99.596 18.924)">
            <path id="Path_38" data-name="Path 38" d="M656.2,301.744s36.639-30.079,38.589-15.02S656.2,301.744,656.2,301.744Z" transform="translate(-656.199 -282.503)" fill="#b8e072"/>
          </g>
          <g id="Group_18" data-name="Group 18" transform="translate(66.528 28.544)">
            <path id="Path_39" data-name="Path 39" d="M651.238,328.2s-30.078-36.639-15.02-38.589S651.238,328.2,651.238,328.2Z" transform="translate(-631.998 -289.544)" fill="#b8e072"/>
          </g>
          <g id="Group_19" data-name="Group 19" transform="translate(85.724 48.097)">
            <path id="Path_40" data-name="Path 40" d="M646.047,323.093s36.638-30.078,38.589-15.02S646.047,323.093,646.047,323.093Z" transform="translate(-646.047 -303.853)" fill="#b8e072"/>
          </g>
          <g id="Group_20" data-name="Group 20" transform="translate(54.626 56.775)">
            <path id="Path_41" data-name="Path 41" d="M640.167,344.118s-26.388-32.144-13.176-33.854S640.167,344.118,640.167,344.118Z" transform="translate(-623.288 -310.204)" fill="#b8e072"/>
          </g>
          <g id="Group_21" data-name="Group 21" transform="translate(71.152 73.732)">
            <path id="Path_42" data-name="Path 42" d="M635.382,339.493s32.144-26.388,33.854-13.176S635.382,339.493,635.382,339.493Z" transform="translate(-635.382 -322.614)" fill="#b8e072"/>
          </g>
          <g id="Group_22" data-name="Group 22" transform="translate(43.059 79.053)">
            <path id="Path_43" data-name="Path 43" d="M627,359.558s-20.647-33.054-8.163-33.05S627,359.558,627,359.558Z" transform="translate(-614.823 -326.508)" fill="#b8e072"/>
          </g>
          <g id="Group_23" data-name="Group 23" transform="translate(54.626 99.461)">
            <path id="Path_44" data-name="Path 44" d="M623.288,353.616s33.055-20.645,33.051-8.162S623.288,353.616,623.288,353.616Z" transform="translate(-623.288 -341.444)" fill="#b8e072"/>
          </g>
          <g id="Group_26" data-name="Group 26" transform="translate(31.994 97.033)">
            <g id="Group_24" data-name="Group 24">
              <path id="Path_45" data-name="Path 45" d="M611.6,373.9s-11.4-37.269.66-34.039S611.6,373.9,611.6,373.9Z" transform="translate(-606.725 -339.667)" fill="#b8e072"/>
            </g>
            <g id="Group_25" data-name="Group 25" transform="translate(4.832 28.872)">
              <path id="Path_46" data-name="Path 46" d="M610.261,365.673s37.269-11.4,34.038.66S610.261,365.673,610.261,365.673Z" transform="translate(-610.261 -360.797)" fill="#b8e072"/>
            </g>
          </g>
          <g id="Group_29" data-name="Group 29" transform="translate(14.368 117.308)">
            <g id="Group_27" data-name="Group 27">
              <path id="Path_47" data-name="Path 47" d="M598.052,384.188s-9.882-32.312.573-29.511S598.052,384.188,598.052,384.188Z" transform="translate(-593.825 -354.505)" fill="#b8e072"/>
            </g>
            <g id="Group_28" data-name="Group 28" transform="translate(3.902 24.653)">
              <path id="Path_48" data-name="Path 48" d="M596.681,376.775s32.312-9.882,29.511.573S596.681,376.775,596.681,376.775Z" transform="translate(-596.681 -372.547)" fill="#b8e072"/>
            </g>
          </g>
          <g id="Group_32" data-name="Group 32" transform="translate(0 132.629)">
            <g id="Group_30" data-name="Group 30">
              <path id="Path_49" data-name="Path 49" d="M586.921,391.068s-8.44-27.6.488-25.2S586.921,391.068,586.921,391.068Z" transform="translate(-583.31 -365.717)" fill="#b8e072"/>
            </g>
            <g id="Group_31" data-name="Group 31" transform="translate(3.182 20.925)">
              <path id="Path_50" data-name="Path 50" d="M585.639,384.641s27.6-8.439,25.2.489S585.639,384.641,585.639,384.641Z" transform="translate(-585.639 -381.031)" fill="#b8e072"/>
            </g>
          </g>
        </g>
      </g>
      <path id="Path_51" data-name="Path 51" d="M655.221,310.453s10.435-47.952,19.564-44.693S655.221,310.453,655.221,310.453Z" transform="translate(-518.58 -265.602)" fill="#b8e072"/>
      <path id="Path_52" data-name="Path 52" d="M695.971,291.217s-33.979,107.44-140.75,147.326" transform="translate(-555.222 -256.216)" fill="none" stroke="#b8e072" stroke-miterlimit="10" stroke-width="1"/>
    </g>
    <g id="Group_55" data-name="Group 55" transform="translate(43.341 328.305)">
      <g id="Group_54" data-name="Group 54" transform="translate(0 9.81)">
        <g id="Group_53" data-name="Group 53">
          <g id="Group_36" data-name="Group 36" transform="translate(35.906)">
            <path id="Path_53" data-name="Path 53" d="M69.619,300.146s36.257-30.538,21.807-35.2c-12.944-4.179-20.2,27.373-21.568,34C69.7,299.712,69.619,300.146,69.619,300.146Z" transform="translate(-69.619 -264.564)" fill="#b8e072"/>
          </g>
          <g id="Group_37" data-name="Group 37" transform="translate(0 9.811)">
            <path id="Path_54" data-name="Path 54" d="M78.924,296.953s-30.538-36.258-35.2-21.807S78.924,296.953,78.924,296.953Z" transform="translate(-43.341 -271.744)" fill="#b8e072"/>
          </g>
          <g id="Group_38" data-name="Group 38" transform="translate(43.882 30.51)">
            <path id="Path_55" data-name="Path 55" d="M75.456,322.475s36.257-30.538,21.805-35.2S75.456,322.475,75.456,322.475Z" transform="translate(-75.456 -286.892)" fill="#b8e072"/>
          </g>
          <g id="Group_39" data-name="Group 39" transform="translate(8.319 41.026)">
            <path id="Path_56" data-name="Path 56" d="M85.012,319.8s-30.538-36.257-35.2-21.807S85.012,319.8,85.012,319.8Z" transform="translate(-49.429 -294.588)" fill="#b8e072"/>
          </g>
          <g id="Group_40" data-name="Group 40" transform="translate(53.621 60.571)">
            <path id="Path_57" data-name="Path 57" d="M82.583,340.109s31.809-26.791,19.131-30.884S82.583,340.109,82.583,340.109Z" transform="translate(-82.583 -308.892)" fill="#b8e072"/>
          </g>
          <g id="Group_41" data-name="Group 41" transform="translate(22.767 69.659)">
            <path id="Path_58" data-name="Path 58" d="M91.22,337.66s-26.791-31.809-30.884-19.131S91.22,337.66,91.22,337.66Z" transform="translate(-60.003 -315.544)" fill="#b8e072"/>
          </g>
          <g id="Group_42" data-name="Group 42" transform="translate(65.716 84.691)">
            <path id="Path_59" data-name="Path 59" d="M91.435,357.663s26.328-28.733,14.054-31.007S91.435,357.663,91.435,357.663Z" transform="translate(-91.435 -326.544)" fill="#b8e072"/>
          </g>
          <g id="Group_43" data-name="Group 43" transform="translate(35.278 98.144)">
            <path id="Path_60" data-name="Path 60" d="M100.279,353.705s-28.734-26.33-31.008-14.054S100.279,353.705,100.279,353.705Z" transform="translate(-69.159 -336.39)" fill="#b8e072"/>
          </g>
          <g id="Group_46" data-name="Group 46" transform="translate(46.8 104.397)">
            <g id="Group_44" data-name="Group 44" transform="translate(31.575)">
              <path id="Path_61" data-name="Path 61" d="M102.6,374.573s18-34.565,5.559-33.587S102.6,374.573,102.6,374.573Z" transform="translate(-100.699 -340.966)" fill="#b8e072"/>
            </g>
            <g id="Group_45" data-name="Group 45" transform="translate(0 23.191)">
              <path id="Path_62" data-name="Path 62" d="M111.2,367.883s-34.564-18.005-33.587-5.56S111.2,367.883,111.2,367.883Z" transform="translate(-77.591 -357.938)" fill="#b8e072"/>
            </g>
          </g>
          <g id="Group_49" data-name="Group 49" transform="translate(66.704 127.658)">
            <g id="Group_47" data-name="Group 47" transform="translate(27.024)">
              <path id="Path_63" data-name="Path 63" d="M113.583,387.126s15.609-29.967,4.819-29.12S113.583,387.126,113.583,387.126Z" transform="translate(-111.935 -357.989)" fill="#b8e072"/>
            </g>
            <g id="Group_48" data-name="Group 48" transform="translate(0 19.787)">
              <path id="Path_64" data-name="Path 64" d="M121.294,381.091s-29.966-15.609-29.118-4.819S121.294,381.091,121.294,381.091Z" transform="translate(-92.158 -372.47)" fill="#b8e072"/>
            </g>
          </g>
          <g id="Group_52" data-name="Group 52" transform="translate(83.788 145.448)">
            <g id="Group_50" data-name="Group 50" transform="translate(22.908)">
              <path id="Path_65" data-name="Path 65" d="M122.833,395.893s13.332-25.593,4.117-24.869S122.833,395.893,122.833,395.893Z" transform="translate(-121.426 -371.009)" fill="#b8e072"/>
            </g>
            <g id="Group_51" data-name="Group 51" transform="translate(0 16.798)">
              <path id="Path_66" data-name="Path 66" d="M129.546,390.665s-25.594-13.332-24.87-4.116S129.546,390.665,129.546,390.665Z" transform="translate(-104.661 -383.303)" fill="#b8e072"/>
            </g>
          </g>
        </g>
      </g>
      <path id="Path_67" data-name="Path 67" d="M73.659,304.932s-1.515-49.05-11.084-47.512S73.659,304.932,73.659,304.932Z" transform="translate(-37.221 -257.385)" fill="#b8e072"/>
      <path id="Path_68" data-name="Path 68" d="M68.366,284.546S82.178,396.381,179.882,455.072" transform="translate(-34.172 -247.433)" fill="none" stroke="#b8e072" stroke-miterlimit="10" stroke-width="1"/>
    </g>
    <g id="Group_57" data-name="Group 57" transform="translate(137.136 489.51)">
      <g id="Group_56" data-name="Group 56">
        <g id="Path_69" data-name="Path 69" transform="translate(-111.984 -372.438)" fill="#ffd900" stroke-linecap="round" stroke-linejoin="round">
          <path d="M 136.4620361328125 425.3348083496094 L 118.7955932617188 425.3348083496094 C 116.8278427124023 425.3348083496094 114.9824752807617 424.4457397460938 113.5994262695312 422.8313598632812 C 112.2352752685547 421.2390441894531 111.4839935302734 419.1267395019531 111.4839935302734 416.8835754394531 L 111.4839935302734 391.2892150878906 C 111.4839935302734 389.0460205078125 112.2352752685547 386.9337158203125 113.5994338989258 385.3414001464844 C 114.9824752807617 383.72705078125 116.8278427124023 382.8379821777344 118.7955932617188 382.8379821777344 L 136.4620361328125 382.8379821777344 C 138.4297943115234 382.8379821777344 140.2751617431641 383.72705078125 141.658203125 385.3414001464844 C 143.0223693847656 386.9337158203125 143.7736358642578 389.0460205078125 143.7736358642578 391.2892150878906 L 143.7736358642578 416.8835754394531 C 143.7736358642578 419.1267395019531 143.0223693847656 421.2390441894531 141.658203125 422.8313598632812 C 140.2751617431641 424.4457397460938 138.4297943115234 425.3348083496094 136.4620361328125 425.3348083496094 Z M 123.4441680908203 392.3384704589844 C 121.4858856201172 392.3384704589844 119.8927154541016 394.2197570800781 119.8927154541016 396.5321350097656 L 119.8927154541016 411.6406555175781 C 119.8927154541016 413.9530029296875 121.4858856201172 415.8342590332031 123.4441680908203 415.8342590332031 L 133.9505615234375 415.8342590332031 C 135.9088287353516 415.8342590332031 137.5019836425781 413.9530029296875 137.5019836425781 411.6406555175781 L 137.5019836425781 396.5321350097656 C 137.5019836425781 394.2197570800781 135.9088287353516 392.3384704589844 133.9505615234375 392.3384704589844 L 123.4441680908203 392.3384704589844 Z" stroke="none"/>
          <path d="M 118.7955932617188 383.3379821777344 C 115.0338439941406 383.3379821777344 111.9839935302734 386.8974914550781 111.9839935302734 391.2892150878906 L 111.9839935302734 416.8835754394531 C 111.9839935302734 421.2752380371094 115.0338439941406 424.8348083496094 118.7955932617188 424.8348083496094 L 136.4620361328125 424.8348083496094 C 140.2238159179688 424.8348083496094 143.2736358642578 421.2752380371094 143.2736358642578 416.8835754394531 L 143.2736358642578 391.2892150878906 C 143.2736358642578 386.8974914550781 140.2238159179688 383.3379821777344 136.4620361328125 383.3379821777344 L 118.7955932617188 383.3379821777344 M 133.9505615234375 416.3342590332031 L 123.4441680908203 416.3342590332031 C 121.2073364257812 416.3342590332031 119.3927154541016 414.2327575683594 119.3927154541016 411.6406555175781 L 119.3927154541016 396.5321350097656 C 119.3927154541016 393.9400329589844 121.2073364257812 391.8384704589844 123.4441680908203 391.8384704589844 L 133.9505615234375 391.8384704589844 C 136.1873931884766 391.8384704589844 138.0019836425781 393.9400329589844 138.0019836425781 396.5321350097656 L 138.0019836425781 411.6406555175781 C 138.0019836425781 414.2327575683594 136.1873931884766 416.3342590332031 133.9505615234375 416.3342590332031 M 118.7955932617188 382.3379821777344 L 136.4620361328125 382.3379821777344 C 138.5781555175781 382.3379821777344 140.5583648681641 383.2890930175781 142.0379180908203 385.01611328125 C 143.4796447753906 386.6989440917969 144.2736358642578 388.9267883300781 144.2736358642578 391.2892150878906 L 144.2736358642578 416.8835754394531 C 144.2736358642578 419.2459716796875 143.4796447753906 421.4738159179688 142.0379180908203 423.1566772460938 C 140.558349609375 424.8836975097656 138.578125 425.8348083496094 136.4620361328125 425.8348083496094 L 118.7955932617188 425.8348083496094 C 116.6795043945312 425.8348083496094 114.6992797851562 424.8836975097656 113.2197265625 423.1566772460938 C 111.7779998779297 421.4738159179688 110.9839935302734 419.2459716796875 110.9839935302734 416.8835754394531 L 110.9839935302734 391.2892150878906 C 110.9839935302734 388.9267883300781 111.7779998779297 386.6989440917969 113.2197265625 385.0160827636719 C 114.6992797851562 383.2890930175781 116.6794891357422 382.3379821777344 118.7955932617188 382.3379821777344 Z M 133.9505615234375 415.3342590332031 C 135.6331176757812 415.3342590332031 137.0019836425781 413.6773071289062 137.0019836425781 411.6406555175781 L 137.0019836425781 396.5321350097656 C 137.0019836425781 394.4954223632812 135.6331176757812 392.8384704589844 133.9505615234375 392.8384704589844 L 123.4441680908203 392.8384704589844 C 121.7615814208984 392.8384704589844 120.3927154541016 394.4954223632812 120.3927154541016 396.5321350097656 L 120.3927154541016 411.6406555175781 C 120.3927154541016 413.6773071289062 121.7615814208984 415.3342590332031 123.4441680908203 415.3342590332031 L 133.9505615234375 415.3342590332031 Z" stroke="none" fill="#001a31"/>
        </g>
        <g id="Path_70" data-name="Path 70" transform="translate(-106.847 -375.361)" fill="#ffd900" stroke-linecap="round" stroke-linejoin="round">
          <path d="M 162.3986053466797 444.3924560546875 L 140.0467071533203 444.3924560546875 C 136.1602783203125 444.3924560546875 132.5076904296875 442.880126953125 129.7618255615234 440.1340637207031 C 127.0161209106445 437.38818359375 125.5039978027344 433.7357788085938 125.5039978027344 429.8497314453125 L 125.5039978027344 375.3609619140625 L 125.5039978027344 374.8609619140625 L 126.0039978027344 374.8609619140625 L 176.4412841796875 374.8609619140625 L 176.9412841796875 374.8609619140625 L 176.9412841796875 375.3609619140625 L 176.9412841796875 429.8497314453125 C 176.9412841796875 433.7357788085938 175.4291534423828 437.38818359375 172.6834564208984 440.1340637207031 C 169.9376068115234 442.880126953125 166.2850341796875 444.3924560546875 162.3986053466797 444.3924560546875 Z" stroke="none"/>
          <path d="M 126.0039978027344 375.3609619140625 L 126.0039978027344 429.8497314453125 C 126.0039978027344 437.6082153320312 132.2868041992188 443.8924560546875 140.0467071533203 443.8924560546875 L 162.3986053466797 443.8924560546875 C 170.1584777832031 443.8924560546875 176.4412841796875 437.6082153320312 176.4412841796875 429.8497314453125 L 176.4412841796875 375.3609619140625 L 126.0039978027344 375.3609619140625 M 126.0039978027344 374.3609619140625 L 176.4412841796875 374.3609619140625 C 176.9935607910156 374.3609619140625 177.4412841796875 374.8086853027344 177.4412841796875 375.3609619140625 L 177.4412841796875 429.8497314453125 C 177.4412841796875 433.8693237304688 175.8771514892578 437.6472778320312 173.0370330810547 440.4876098632812 C 170.1967163085938 443.328125 166.4185943603516 444.8924560546875 162.3986053466797 444.8924560546875 L 140.0467071533203 444.8924560546875 C 136.0267181396484 444.8924560546875 132.2485656738281 443.328125 129.4082641601562 440.4876098632812 C 126.5681304931641 437.6472778320312 125.0039978027344 433.8693237304688 125.0039978027344 429.8497314453125 L 125.0039978027344 375.3609619140625 C 125.0039978027344 374.8086853027344 125.4517211914062 374.3609619140625 126.0039978027344 374.3609619140625 Z" stroke="none" fill="#001a31"/>
        </g>
      </g>
      <path id="Path_71" data-name="Path 71" d="M158.708,443.892H140.047A14.038,14.038,0,0,1,126,429.85V375.361h22.673C146.727,391.315,143.53,431.439,158.708,443.892Z" transform="translate(-106.847 -375.361)" fill="#ffd900" opacity="0.75" style="mix-blend-mode: multiply;isolation: isolate"/>
    </g>
    <g id="Group_58" data-name="Group 58" transform="translate(700.5 374.534)">
      <path id="Path_72" data-name="Path 72" d="M545.363,412.048s-33.887-46.894-15.745-49.291,23.859,13.029,23.859,13.029-14.346-38.836-.287-39.449c7.873-.342,18,23.466,18,23.466s-13.872-68.586,15.274-68.586c6.5,0,23.594,17.114,15.721,68.8,0,0,9.243-28.068,27.384-20.2s-15.062,40.048-15.062,40.048,23.277-24.3,32.861-10.269-29.862,42.445-29.862,42.445Z" transform="translate(-524.276 -291.217)" fill="#b8e072"/>
      <path id="Path_73" data-name="Path 73" d="M605.372,326.789c18.141,7.873-15.062,40.048-15.062,40.048s23.277-24.3,32.861-10.269" transform="translate(-500.079 -278.183)" fill="none" stroke="#001a31" stroke-linecap="round" stroke-linejoin="round" stroke-width="1"/>
      <path id="Path_74" data-name="Path 74" d="M528.185,362.757c18.141-2.4,23.859,13.029,23.859,13.029s-14.346-38.836-.287-39.449c7.873-.342,18,23.466,18,23.466s-13.872-68.586,15.274-68.586" transform="translate(-522.843 -291.217)" fill="none" stroke="#001a31" stroke-linecap="round" stroke-linejoin="round" stroke-width="1"/>
      <g id="Path_75" data-name="Path 75" transform="translate(-522.092 -260.333)" fill="#ffda00" stroke-linecap="round" stroke-linejoin="round">
        <path d="M 580.1885986328125 450.7834167480469 C 577.35546875 450.783447265625 573.005859375 450.6371765136719 567.96435546875 449.3720092773438 C 561.6392211914062 447.7847290039062 555.9542846679688 444.8699645996094 551.0674438476562 440.7087097167969 C 544.6961669921875 435.2834777832031 539.67333984375 427.7192993164062 536.1384887695312 418.2263488769531 C 534.1021118164062 412.7575988769531 532.531005859375 406.5578002929688 531.4688110351562 399.7991638183594 C 530.3176879882812 392.4747619628906 529.7340087890625 384.3006591796875 529.7340087890625 375.5039672851562 L 529.7340087890625 375.0039672851562 L 530.2340087890625 375.0039672851562 L 632.5856323242188 375.0039672851562 L 633.0856323242188 375.0039672851562 L 633.0856323242188 375.5039672851562 C 633.0856323242188 383.3753051757812 632.6178588867188 390.7607421875 631.6953735351562 397.4552001953125 C 630.8359375 403.6923522949219 629.5601806640625 409.4860534667969 627.9036865234375 414.6753540039062 C 624.970703125 423.8635864257812 620.7606811523438 431.4473266601562 615.3905639648438 437.2158813476562 C 611.0579833984375 441.8699035644531 605.9366455078125 445.3847045898438 600.1688232421875 447.66259765625 C 596.0623779296875 449.2843322753906 591.6162719726562 450.2817077636719 586.9540405273438 450.6269226074219 C 585.1621704101562 450.7653198242188 583.6736450195312 450.7830810546875 582.5771484375 450.7830810546875 C 582.333740234375 450.7830810546875 582.1076049804688 450.7821350097656 581.8994140625 450.7812805175781 C 581.7232666015625 450.7805786132812 581.5601806640625 450.7799072265625 581.4105224609375 450.7799072265625 C 581.2559204101562 450.7799072265625 581.0862426757812 450.7806396484375 580.9024047851562 450.7814331054688 C 580.683837890625 450.7823791503906 580.4453735351562 450.7834167480469 580.1885986328125 450.7834167480469 Z" stroke="none"/>
        <path d="M 530.2340087890625 375.5039672851562 C 530.2340087890625 452.0590209960938 573.7830200195312 450.2796936035156 581.4105224609375 450.2799072265625 C 582.5460815429688 450.2799377441406 584.4577026367188 450.3182373046875 586.9171142578125 450.1282958984375 C 600.97900390625 449.0870361328125 632.5856323242188 440.7026977539062 632.5856323242188 375.5039672851562 L 530.2340087890625 375.5039672851562 M 530.2340087890625 374.5039672851562 L 632.5856323242188 374.5039672851562 C 633.137939453125 374.5039672851562 633.5856323242188 374.9516906738281 633.5856323242188 375.5039672851562 C 633.5856323242188 403.9707336425781 627.5870361328125 424.8482360839844 615.7565307617188 437.5565490722656 C 611.372802734375 442.2655334472656 606.1901245117188 445.8221740722656 600.3524780273438 448.1276245117188 C 596.1990356445312 449.7679443359375 591.70361328125 450.776611328125 586.990966796875 451.1255493164062 C 585.18359375 451.26513671875 583.6826171875 451.2830810546875 582.5771484375 451.2830810546875 C 582.1278686523438 451.2830810546875 581.7367553710938 451.2799072265625 581.4105224609375 451.2799072265625 C 581.072265625 451.2798767089844 580.6611938476562 451.2833862304688 580.1885986328125 451.2834167480469 C 577.328857421875 451.2834167480469 572.937744140625 451.1355285644531 567.8426513671875 449.8569030761719 C 561.4422607421875 448.2507019042969 555.689208984375 445.3008728027344 550.7432861328125 441.08935546875 C 544.3063354492188 435.608154296875 539.23486328125 427.9746398925781 535.6698608398438 418.4007873535156 C 533.6218872070312 412.9007873535156 532.042236328125 406.6683959960938 530.974853515625 399.8767700195312 C 529.8197021484375 392.5267639160156 529.2340087890625 384.3265686035156 529.2340087890625 375.5039672851562 C 529.2340087890625 374.9516906738281 529.6817016601562 374.5039672851562 530.2340087890625 374.5039672851562 Z" stroke="none" fill="#001a31"/>
      </g>
      <path id="Path_76" data-name="Path 76" d="M586.917,450.128c-2.46.19-4.371.152-5.507.152-7.627,0-51.177,1.779-51.177-74.776h35.372S555.841,430.389,586.917,450.128Z" transform="translate(-522.092 -260.333)" fill="#f5e073" opacity="0.75" style="mix-blend-mode: multiply;isolation: isolate"/>
    </g>
    <path id="Path_84" data-name="Path 84" d="M288.144,306.986" transform="translate(89.701 89.095)" fill="#221d53"/>
    <g id="Group_62" data-name="Group 62" transform="translate(184.243 217.726)">
      <path id="Path_85" data-name="Path 85" d="M215.459,223.475a34.6,34.6,0,0,0-69,0Z" transform="translate(-146.459 -170.952)" fill="#fff"/>
      <path id="Path_86" data-name="Path 86" d="M241.734,228.981a34.633,34.633,0,1,0-59.23,0Z" transform="translate(-135.09 -176.459)" fill="#fff"/>
      <path id="Path_87" data-name="Path 87" d="M272.735,222.727a34.588,34.588,0,0,0-68.331,0Z" transform="translate(-125.227 -170.205)" fill="#fff"/>
    </g>
    <g id="Group_63" data-name="Group 63" transform="translate(650.958 299.274)">
      <path id="Path_88" data-name="Path 88" d="M545.7,275.439a28.922,28.922,0,0,0-57.678,0Z" transform="translate(-488.019 -231.536)" fill="#fff"/>
      <path id="Path_89" data-name="Path 89" d="M567.66,280.042a28.95,28.95,0,1,0-49.511,0Z" transform="translate(-478.516 -236.139)" fill="#fff"/>
      <path id="Path_90" data-name="Path 90" d="M593.574,274.814a28.913,28.913,0,0,0-57.119,0Z" transform="translate(-470.271 -230.911)" fill="#fff"/>
    </g>
    <g id="Group_64" data-name="Group 64" transform="translate(432.92 399.905)">
      <path id="Path_91" data-name="Path 91" d="M596.227,309.785,571.44,467.921l-242.99,1.517,29.009-159.653Z" transform="translate(-328.45 -309.785)" fill="#001a31"/>
    </g>
    <path id="Path_92" data-name="Path 92" d="M571.44,467.921l-242.99,1.517,29.009-159.653h54.547C413.578,345.913,431,443.872,571.44,467.921Z" transform="translate(104.47 90.12)" fill="#001a31"/>
    <path id="Path_93" data-name="Path 93" d="M595.644,309.785H357.466l-29.018,159.65" transform="translate(104.469 90.12)" fill="none" stroke="#6725a3" stroke-linecap="round" stroke-linejoin="round" stroke-width="1"/>
    <path id="Path_96" data-name="Path 96" d="M0,0H750.135V35.953H0Z" transform="translate(111.261 558.047)" fill="#ededed" stroke="#001a31" stroke-linecap="round" stroke-width="1"/>
    <g id="Group_67" data-name="Group 67" transform="translate(174.564 105.13)">
      <path id="Path_94" data-name="Path 94" d="M295.282,97.406H162.793a23.419,23.419,0,0,0-23.418,23.419v50.563a23.419,23.419,0,0,0,23.418,23.419h98.68l32.1,23.285-7.652-23.285h9.357A23.419,23.419,0,0,0,318.7,171.388V120.825A23.419,23.419,0,0,0,295.282,97.406Z" transform="translate(-139.375 -92.83)" fill="#ffda00"/>
      <path id="Path_95" data-name="Path 95" d="M302.538,94.057H170.049a23.418,23.418,0,0,0-23.418,23.418v50.563a23.418,23.418,0,0,0,23.418,23.419h98.68l32.1,23.287-7.652-23.287h9.357a23.418,23.418,0,0,0,23.418-23.419V117.475A23.418,23.418,0,0,0,302.538,94.057Z" transform="translate(-136.716 -94.057)" fill="#fff" stroke="#ffda00" stroke-linecap="round" stroke-linejoin="round" stroke-width="1"/>
      <g id="Group_66" data-name="Group 66" transform="translate(25.278 20.453)">
        <g id="Group_65" data-name="Group 65" transform="translate(0 27.108)">
          <line id="Line_3" data-name="Line 3" x2="130.451" fill="none" stroke="#001a31" stroke-linecap="round" stroke-linejoin="round" stroke-width="1"/>
        </g>
        <line id="Line_4" data-name="Line 4" x2="67.246" fill="none" stroke="#001a31" stroke-linecap="round" stroke-linejoin="round" stroke-width="1"/>
        <line id="Line_5" data-name="Line 5" x2="81.965" transform="translate(0.149 18.595)" fill="none" stroke="#001a31" stroke-linecap="round" stroke-linejoin="round" stroke-width="1"/>
        <line id="Line_6" data-name="Line 6" x2="108.624" transform="translate(0.395 36.144)" fill="none" stroke="#001a31" stroke-linecap="round" stroke-linejoin="round" stroke-width="1"/>
        <line id="Line_7" data-name="Line 7" x2="128.864" transform="translate(0.557 45.18)" fill="none" stroke="#001a31" stroke-linecap="round" stroke-linejoin="round" stroke-width="1"/>
        <line id="Line_8" data-name="Line 8" x2="129.908" transform="translate(0.564 54.216)" fill="none" stroke="#001a31" stroke-linecap="round" stroke-linejoin="round" stroke-width="1"/>
        <line id="Line_9" data-name="Line 9" x2="129.478" transform="translate(0.632 9.036)" fill="none" stroke="#001a31" stroke-linecap="round" stroke-linejoin="round" stroke-width="1"/>
      </g>
    </g>
  </g>
</svg>
